<?xml version="1.0" standalone="no"?>
<!DOCTYPE svg PUBLIC "-//W3C//DTD SVG 20010904//EN"
 "http://www.w3.org/TR/2001/REC-SVG-20010904/DTD/svg10.dtd">
<svg version="1.0" xmlns="http://www.w3.org/2000/svg"
 width="300.000000pt" height="300.000000pt" viewBox="0 0 300.000000 300.000000"
 preserveAspectRatio="xMidYMid meet">
<metadata>
Created by potrace 1.10, written by Peter Selinger 2001-2011
</metadata>
<g transform="translate(0.000000,300.000000) scale(0.100000,-0.100000)"
fill="#000000" stroke="none">
<path d="M1510 2009 c-87 -11 -196 -66 -264 -133 -96 -94 -154 -247 -142 -378
26 -291 294 -494 574 -434 367 77 513 524 260 792 -117 124 -258 175 -428 153z
m201 -35 c66 -19 77 -29 50 -43 -12 -7 -21 -20 -21 -30 0 -23 -10 -32 -24 -23
-11 7 -16 8 -38 11 -14 2 -49 45 -52 64 -1 7 -5 18 -9 25 -11 17 27 16 94 -4z
m-152 -32 c3 -5 17 -13 30 -17 l23 -7 -20 -21 c-18 -18 -25 -19 -46 -9 -14 6
-33 9 -43 5 -11 -4 -14 -3 -9 5 4 7 14 12 22 12 21 0 17 18 -6 25 -22 7 -43
-2 -36 -14 3 -4 -15 -18 -39 -30 -63 -31 -59 -71 6 -71 10 0 19 -7 19 -15 0
-8 -9 -15 -20 -15 -34 0 -79 -28 -95 -60 -11 -20 -15 -60 -15 -135 0 -122 -9
-127 -61 -39 -27 46 -42 56 -18 12 6 -11 9 -22 6 -24 -2 -2 -16 20 -31 50 -19
37 -26 67 -25 97 1 24 -2 53 -5 64 -5 15 5 33 36 69 43 50 88 76 131 76 14 0
30 6 36 14 7 8 22 12 34 9 16 -3 18 -2 8 5 -7 5 -11 14 -7 20 7 12 117 7 125
-6z m294 -55 c26 -20 28 -25 16 -49 -8 -20 -9 -31 -1 -40 15 -18 12 -126 -4
-168 l-14 -35 -101 3 c-150 6 -149 6 -149 -78 l0 -69 47 -3 c27 -2 48 -8 51
-16 3 -10 -21 -12 -111 -11 l-115 1 5 37 c7 45 7 45 31 30 12 -7 27 -9 38 -4
15 7 12 9 -19 15 -39 7 -66 25 -55 36 4 3 15 1 25 -4 10 -5 31 -12 47 -16 26
-6 28 -5 17 8 -8 9 -27 16 -43 16 -31 0 -34 5 -41 65 l-4 40 110 -3 c83 -3
114 -8 122 -18 8 -11 27 -14 75 -12 l65 3 3 42 c4 48 -17 96 -51 117 -12 8
-46 18 -74 22 -33 4 -53 11 -53 19 0 8 -3 21 -6 30 -6 14 -2 15 30 10 32 -6
39 -4 64 23 32 37 57 40 95 9z m-308 -23 c8 -9 22 -14 30 -11 7 3 19 -1 25 -9
7 -8 21 -14 31 -14 12 0 19 -7 19 -20 0 -18 -7 -20 -85 -20 -69 0 -85 3 -85
15 0 8 4 15 10 15 5 0 7 13 4 30 -6 26 -3 30 14 30 11 0 28 -7 37 -16z m378
-44 c16 -26 16 -30 3 -30 -9 0 -16 8 -16 18 0 14 -2 15 -10 2 -12 -20 -23 -6
-15 19 9 28 18 26 38 -9z m78 -92 c22 -42 17 -50 -10 -16 -18 22 -41 18 -41
-8 0 -19 -36 -18 -44 2 -12 31 -7 46 14 39 21 -7 28 9 9 20 -6 5 -4 12 8 20
21 16 30 7 64 -57z m-226 30 c32 -14 55 -56 55 -98 0 -30 0 -30 -55 -30 -48 0
-55 2 -55 20 0 19 -7 20 -135 20 l-135 0 0 -135 0 -135 138 0 137 0 0 35 0 35
-52 0 -53 0 0 50 0 50 105 0 105 0 0 -95 c0 -102 -13 -145 -49 -165 -12 -6
-94 -10 -196 -10 l-177 0 -29 29 -29 29 0 169 c1 180 6 204 51 229 32 18 336
19 374 2z m234 -105 l33 -38 -4 -100 c-3 -62 -12 -117 -23 -145 -22 -55 -41
-78 -29 -35 4 17 8 53 9 80 l0 50 -41 -3 c-36 -3 -44 0 -62 25 -25 35 -26 99
-3 133 10 14 20 33 24 42 3 9 16 18 29 21 13 2 26 5 29 6 3 0 20 -16 38 -36z
m-824 -49 c41 -71 94 -124 121 -124 23 0 24 -3 24 -64 0 -55 4 -69 27 -96 14
-17 37 -36 50 -41 12 -5 23 -15 23 -23 0 -8 9 -31 21 -50 21 -35 20 -96 -2
-96 -29 0 -130 62 -178 109 -54 54 -106 135 -118 183 -15 66 -14 248 2 248 1
0 15 -21 30 -46z m745 -174 c11 0 24 -8 29 -18 13 -24 6 -94 -13 -129 -36 -71
-168 -162 -256 -178 l-35 -6 46 43 c49 46 69 76 69 104 0 9 18 36 40 60 38 42
40 46 40 110 l0 66 31 -26 c17 -14 39 -26 49 -26z m-198 -202 c-16 -31 -31
-48 -43 -48 -10 0 -23 -9 -30 -21 -6 -11 -30 -30 -54 -40 -24 -11 -47 -24 -50
-29 -3 -6 -18 -10 -32 -10 l-26 0 7 68 c6 67 6 67 -24 84 -16 9 -30 23 -30 30
0 10 34 13 153 13 l153 0 -24 -47z"/>
<path d="M610 1535 l0 -255 23 -5 c12 -3 119 -4 237 -3 l215 3 0 70 0 70 -167
3 c-160 2 -168 3 -168 22 0 19 7 20 134 20 151 0 146 -3 146 80 0 29 -6 52
-14 59 -10 8 -56 11 -138 10 -114 -1 -123 0 -123 17 0 18 12 19 168 22 l167 2
0 70 0 70 -240 0 -240 0 0 -255z m460 185 l0 -50 -170 0 -170 0 0 -45 0 -45
135 0 135 0 0 -50 0 -50 -135 0 -135 0 0 -40 0 -40 170 0 170 0 0 -50 0 -50
-220 0 -220 0 0 235 0 235 220 0 220 0 0 -50z"/>
<path d="M2097 1783 c-13 -12 -8 -488 5 -501 12 -12 95 -16 122 -6 13 5 16 22
16 80 l0 74 136 0 c211 0 234 19 234 187 0 167 -11 173 -298 173 -115 0 -212
-3 -215 -7z m443 -28 c43 -22 50 -43 50 -144 0 -86 -2 -92 -29 -123 l-29 -33
-156 -3 -156 -3 0 -75 0 -74 -50 0 -50 0 0 235 0 235 195 0 c155 0 202 -3 225
-15z"/>
<path d="M2220 1610 l0 -60 135 0 135 0 0 60 0 60 -135 0 -135 0 0 -60z m250
5 l0 -35 -115 0 -115 0 0 35 0 35 115 0 115 0 0 -35z"/>
<path d="M1820 962 c0 -8 6 -12 15 -8 12 4 15 -3 15 -29 0 -19 5 -35 10 -35 6
0 10 15 10 34 0 25 5 36 18 38 9 3 -2 6 -25 9 -32 3 -43 1 -43 -9z"/>
<path d="M942 933 c3 -36 5 -38 41 -41 21 -2 37 1 37 7 0 6 -13 11 -30 11 -23
0 -30 4 -30 20 0 16 7 20 30 20 17 0 30 5 30 10 0 6 -18 10 -41 10 l-40 0 3
-37z"/>
<path d="M1034 956 c-3 -8 -4 -25 -2 -38 2 -19 10 -24 41 -26 l37 -3 0 40 c0
40 -1 41 -35 41 -22 0 -38 -6 -41 -14z m62 -26 c0 -14 -7 -20 -23 -20 -16 0
-23 6 -23 20 0 14 7 20 23 20 16 0 23 -6 23 -20z"/>
<path d="M1125 930 c-1 -22 3 -40 7 -40 4 0 8 12 8 26 0 22 2 25 15 14 12 -10
18 -10 30 0 13 11 15 8 15 -14 0 -14 3 -26 8 -26 4 0 7 18 7 40 0 43 -16 53
-35 23 -10 -17 -10 -17 -20 0 -19 30 -35 19 -35 -23z"/>
<path d="M1230 930 c0 -39 1 -40 35 -40 44 0 46 19 3 21 -31 2 -31 2 -5 6 15
2 27 8 27 13 0 5 -12 11 -27 13 -26 4 -26 4 5 6 43 2 41 21 -3 21 -34 0 -35
-1 -35 -40z"/>
<path d="M1310 930 c0 -22 5 -40 10 -40 6 0 10 7 10 15 0 8 4 15 9 15 5 0 14
-7 21 -15 20 -24 27 -18 28 25 l2 40 -40 0 c-40 0 -40 0 -40 -40z"/>
<path d="M1404 956 c-3 -8 -4 -25 -2 -38 2 -19 10 -24 41 -26 21 -2 37 1 37 7
0 6 -13 11 -30 11 -23 0 -30 4 -30 20 0 16 7 20 30 20 17 0 30 5 30 10 0 16
-70 12 -76 -4z"/>
<path d="M1490 930 c0 -22 5 -40 10 -40 6 0 10 18 10 40 0 22 -4 40 -10 40 -5
0 -10 -18 -10 -40z"/>
<path d="M1522 933 c3 -36 5 -38 38 -38 33 0 35 2 38 38 l3 37 -41 0 -41 0 3
-37z m58 -3 c0 -13 -7 -20 -20 -20 -13 0 -20 7 -20 20 0 13 7 20 20 20 13 0
20 -7 20 -20z"/>
<path d="M1650 930 c0 -39 1 -40 35 -40 44 0 46 19 3 21 -31 2 -31 2 -5 6 34
5 36 23 1 23 -14 0 -23 4 -19 10 3 6 17 7 31 4 14 -4 24 -2 24 5 0 6 -16 11
-35 11 -34 0 -35 -1 -35 -40z"/>
<path d="M1743 953 c15 -16 15 -18 0 -35 -19 -22 -10 -36 12 -18 12 10 18 10
30 0 22 -19 31 -3 11 19 -15 16 -15 19 -1 31 9 7 13 15 10 18 -2 3 -12 -1 -21
-9 -13 -11 -18 -11 -21 -1 -3 6 -12 12 -21 12 -15 0 -15 -2 1 -17z"/>
<path d="M1908 935 c-2 -20 -2 -38 1 -40 9 -9 71 -5 71 5 0 6 -14 10 -31 10
-19 0 -28 4 -24 11 4 6 13 8 21 5 7 -3 16 -1 19 4 4 6 -6 10 -21 10 -33 0 -21
16 16 23 19 3 16 5 -11 6 -35 1 -37 -1 -41 -34z"/>
<path d="M1990 930 c0 -22 5 -40 10 -40 6 0 10 7 10 15 0 8 4 15 9 15 5 0 14
-7 21 -15 20 -24 26 -18 27 25 l2 40 -40 0 c-39 0 -39 0 -39 -40z"/>
<path d="M2080 930 c0 -22 5 -40 10 -40 6 0 10 18 10 40 0 22 -4 40 -10 40 -5
0 -10 -18 -10 -40z"/>
<path d="M2110 930 l0 -41 38 3 c35 3 37 5 37 38 0 33 -2 35 -37 38 l-38 3 0
-41z m60 5 c0 -20 -5 -25 -25 -25 -18 0 -25 5 -25 18 0 24 8 32 32 32 13 0 18
-7 18 -25z"/>
<path d="M2200 930 c0 -23 5 -40 11 -40 6 0 9 7 5 15 -3 9 0 15 8 15 7 0 19
-7 26 -15 7 -8 17 -15 22 -15 6 0 6 6 -1 14 -8 10 -9 16 -1 21 5 3 10 15 10
26 0 16 -7 19 -40 19 -40 0 -40 0 -40 -40z"/>
</g>
</svg>
